<?xml version="1.0" encoding="utf-8"?>
<!-- Svg Vector Icons : http://www.sfont.cn -->
<!DOCTYPE svg PUBLIC "-//W3C//DTD SVG 1.1//EN" "http://www.w3.org/Graphics/SVG/1.1/DTD/svg11.dtd">
<svg version="1.1" xmlns="http://www.w3.org/2000/svg" xmlns:xlink="http://www.w3.org/1999/xlink" x="0px" y="0px" viewBox="0 0 1000 1000" enable-background="new 0 0 1000 1000" xml:space="preserve">
<metadata> Svg Vector Icons : http://www.sfont.cn </metadata>
<g><path d="M500,10C229.4,10,10,229.4,10,500c0,270.6,219.4,490,490,490c270.6,0,490-219.4,490-490C990,229.4,770.6,10,500,10z M715.4,477.5L538.8,654c-10.7,10.7-24.8,16-38.8,15.9c-14,0.1-28.1-5.2-38.8-15.9L284.7,477.5c-21.3-21.3-21.3-55.7,0-77c21.3-21.3,55.7-21.3,77,0L500,538.8l138.3-138.3c21.3-21.3,55.8-21.3,77,0C736.6,421.7,736.6,456.2,715.4,477.5z"/></g>
</svg>