<?xml version="1.0" standalone="no"?><!DOCTYPE svg PUBLIC "-//W3C//DTD SVG 1.1//EN" "http://www.w3.org/Graphics/SVG/1.1/DTD/svg11.dtd"><svg t="1532484241084" class="icon" style="" viewBox="0 0 1024 1024" version="1.1" xmlns="http://www.w3.org/2000/svg" p-id="18355" xmlns:xlink="http://www.w3.org/1999/xlink" width="48" height="48"><defs><style type="text/css"></style></defs><path d="M448 508.925V577.5C242.5 593.2625 79.7 756.0875 63.975 960.125L0 960a480.8125 480.8125 0 0 1 335.125-426c-87.3125-49.2-144.725-140.4625-144.725-246C190.4 128.9375 319.3375 0 478.4 0s288 128.9375 288 288a282.4 282.4 0 0 1-17.275 96h-69.1875c13.95-29.1875 22.5-61.5 22.5-96 0-123.525-100.4875-224-224.0625-224s-223.975 100.4875-223.975 224c0 113.15 84.55 205.95 193.6 220.925z m576-60.925H512v576h512z m-448 64H960V960H576z m320 64H640V640h256z m0 128H640v64h256zM768 832H640v64h128z m0 0" fill="" p-id="18356"></path></svg>