<?xml version="1.0" standalone="no"?><!DOCTYPE svg PUBLIC "-//W3C//DTD SVG 1.1//EN" "http://www.w3.org/Graphics/SVG/1.1/DTD/svg11.dtd"><svg t="1532484014257" class="icon" style="" viewBox="0 0 1024 1024" version="1.1" xmlns="http://www.w3.org/2000/svg" p-id="14135" xmlns:xlink="http://www.w3.org/1999/xlink" width="48" height="48"><defs><style type="text/css"></style></defs><path d="M998.55871 343.874548l-197.31643 197.398321a85.92416 85.92416 0 0 1-121.42392 0l-197.316429-197.398321a86.006051 86.006051 0 0 1 0-121.464865l197.316429-197.418794a85.944633 85.944633 0 0 1 121.42392 0l197.31643 197.418794a86.006051 86.006051 0 0 1 0 121.464865z m-54.600842-87.766708L767.933105 80.02166a38.304528 38.304528 0 0 0-54.150441-0.020473l-175.901926 176.004289a38.325001 38.325001 0 0 0 0 54.150442l176.024762 176.106654c14.92464 14.92464 39.225802 14.945112 54.150442 0.020472l175.922398-176.004289a38.386419 38.386419 0 0 0-0.020472-54.170915zM364.885943 1024H85.862742A85.985578 85.985578 0 0 1 0 938.096313V658.929802a85.985578 85.985578 0 0 1 85.862742-85.883215h279.023201a85.985578 85.985578 0 0 1 85.862742 85.883215v279.166511A85.985578 85.985578 0 0 1 364.885943 1024z m0-515.381178H85.862742A85.985578 85.985578 0 0 1 0 422.715135V143.548624a85.985578 85.985578 0 0 1 85.862742-85.883215h279.023201a85.985578 85.985578 0 0 1 85.862742 85.883215V422.715135a85.985578 85.985578 0 0 1-85.862742 85.903687z m236.132777 64.427765h279.023201a85.985578 85.985578 0 0 1 85.862742 85.883215v279.166511A85.985578 85.985578 0 0 1 880.041921 1024H601.01872a85.985578 85.985578 0 0 1-85.862742-85.903687V658.929802a85.985578 85.985578 0 0 1 85.862742-85.883215z" p-id="14136"></path></svg>